<svg width="100" height="100" viewBox="0 0 100 100" fill="none" xmlns="http://www.w3.org/2000/svg">
<g id="Icones">
<g id="Layer 1-2">
<path id="Vector (Stroke)" fill-rule="evenodd" clip-rule="evenodd" d="M35.6484 63.9844C35.6484 63.294 36.2081 62.7344 36.8984 62.7344H59.7304C60.4208 62.7344 60.9804 63.294 60.9804 63.9844C60.9804 64.6747 60.4208 65.2344 59.7304 65.2344H36.8984C36.2081 65.2344 35.6484 64.6747 35.6484 63.9844Z" fill="#0F569E"/>
<path id="Vector (Stroke)_2" fill-rule="evenodd" clip-rule="evenodd" d="M18.75 32.0216C18.75 30.2028 20.2267 28.75 22.0216 28.75H57.7098C59.5285 28.75 60.9813 30.2267 60.9813 32.0216V33.8634H69.7732C70.89 33.8634 71.9341 34.4405 72.5322 35.3804L72.5346 35.3841L80.1188 47.3947C80.8505 48.5559 81.25 49.9105 81.25 51.2993V61.9621C81.25 63.7809 79.7733 65.2337 77.9784 65.2337H69.9846C69.2942 65.2337 68.7346 64.6741 68.7346 63.9837C68.7346 63.2933 69.2942 62.7337 69.9846 62.7337H77.9784C78.4033 62.7337 78.75 62.3896 78.75 61.9621V51.2993C78.75 50.3894 78.4884 49.4972 78.005 48.7295M78.005 48.7295L70.4231 36.7226C70.4229 36.7223 70.4233 36.723 70.4231 36.7226C70.2812 36.5004 70.0301 36.3634 69.7732 36.3634H59.7313C59.041 36.3634 58.4813 35.8038 58.4813 35.1134V32.0216C58.4813 31.5967 58.1372 31.25 57.7098 31.25H22.0216C21.5967 31.25 21.25 31.5942 21.25 32.0216V61.9621C21.25 62.387 21.5941 62.7337 22.0216 62.7337H26.6461C27.3365 62.7337 27.8961 63.2933 27.8961 63.9837C27.8961 64.6741 27.3365 65.2337 26.6461 65.2337H22.0216C20.2028 65.2337 18.75 63.757 18.75 61.9621V32.0216" fill="#0F569E"/>
<path id="Vector (Stroke)_3" fill-rule="evenodd" clip-rule="evenodd" d="M31.7712 60.1055C29.6302 60.1055 27.8945 61.8411 27.8945 63.9821C27.8945 66.1231 29.6302 67.8587 31.7712 67.8587C33.9122 67.8587 35.6478 66.1231 35.6478 63.9821C35.6478 61.8411 33.9122 60.1055 31.7712 60.1055ZM25.3945 63.9821C25.3945 60.4604 28.2494 57.6055 31.7712 57.6055C35.2929 57.6055 38.1478 60.4604 38.1478 63.9821C38.1478 67.5038 35.2929 70.3587 31.7712 70.3587C28.2494 70.3587 25.3945 67.5038 25.3945 63.9821Z" fill="#0F569E"/>
<path id="Vector (Stroke)_4" fill-rule="evenodd" clip-rule="evenodd" d="M64.8571 60.1055C62.7161 60.1055 60.9805 61.8411 60.9805 63.9821C60.9805 66.1231 62.7161 67.8587 64.8571 67.8587C66.9981 67.8587 68.7337 66.1231 68.7337 63.9821C68.7337 61.8411 66.9981 60.1055 64.8571 60.1055ZM58.4805 63.9821C58.4805 60.4604 61.3354 57.6055 64.8571 57.6055C68.3788 57.6055 71.2337 60.4604 71.2337 63.9821C71.2337 67.5038 68.3788 70.3587 64.8571 70.3587C61.3354 70.3587 58.4805 67.5038 58.4805 63.9821Z" fill="#0F569E"/>
<path id="Vector (Stroke)_5" fill-rule="evenodd" clip-rule="evenodd" d="M59.7305 33.875C60.4208 33.875 60.9805 34.4346 60.9805 35.125V63.9821C60.9805 64.6724 60.4208 65.2321 59.7305 65.2321C59.0401 65.2321 58.4805 64.6724 58.4805 63.9821V35.125C58.4805 34.4346 59.0401 33.875 59.7305 33.875Z" fill="#0F569E"/>
<path id="Vector (Stroke)_6" fill-rule="evenodd" clip-rule="evenodd" d="M33.6028 47.3601C35.7674 45.4016 38.6271 44.2227 41.7614 44.2227C44.9016 44.2227 47.7434 45.4188 49.9134 47.3541C50.4286 47.8137 50.4737 48.6038 50.0142 49.119C49.5547 49.6342 48.7646 49.6794 48.2493 49.2199C46.5083 47.667 44.2499 46.7227 41.7614 46.7227C39.2669 46.7227 37 47.6578 35.2801 49.2139C34.7681 49.6771 33.9777 49.6376 33.5145 49.1257C33.0513 48.6137 33.0909 47.8233 33.6028 47.3601Z" fill="#0F569E"/>
<path id="Vector (Stroke)_7" fill-rule="evenodd" clip-rule="evenodd" d="M41.7627 40.5664C37.698 40.5664 33.976 42.1079 31.1565 44.6454C30.6434 45.1073 29.853 45.0657 29.3912 44.5525C28.9294 44.0394 28.971 43.249 29.4841 42.7872C32.7426 39.8545 37.0541 38.0664 41.7627 38.0664C46.4714 38.0664 50.7828 39.8545 54.0414 42.7872C54.5545 43.249 54.5961 44.0394 54.1343 44.5525C53.6724 45.0657 52.8821 45.1073 52.3689 44.6454C49.5495 42.1079 45.8275 40.5664 41.7627 40.5664Z" fill="#0F569E"/>
<path id="Vector (Stroke)_8" fill-rule="evenodd" clip-rule="evenodd" d="M33.6028 47.3601C35.7674 45.4016 38.6271 44.2227 41.7614 44.2227C44.9016 44.2227 47.7434 45.4188 49.9134 47.3541C50.4286 47.8137 50.4737 48.6038 50.0142 49.119C49.5547 49.6342 48.7646 49.6794 48.2493 49.2199C46.5083 47.667 44.2499 46.7227 41.7614 46.7227C39.2669 46.7227 37 47.6578 35.2801 49.2139C34.7681 49.6771 33.9777 49.6376 33.5145 49.1257C33.0513 48.6137 33.0909 47.8233 33.6028 47.3601Z" fill="#0F569E"/>
<path id="Vector (Stroke)_9" fill-rule="evenodd" clip-rule="evenodd" d="M41.7625 52.8945C40.8678 52.8945 40.0413 53.2343 39.4175 53.7996C38.906 54.2632 38.1155 54.2243 37.6519 53.7127C37.1883 53.2012 37.2272 52.4107 37.7387 51.9471C38.8063 50.9797 40.2259 50.3945 41.7625 50.3945C43.2953 50.3945 44.7291 50.9771 45.7994 51.9471C46.3109 52.4107 46.3498 53.2012 45.8862 53.7127C45.4226 54.2243 44.6321 54.2632 44.1206 53.7996C43.4996 53.2368 42.6608 52.8945 41.7625 52.8945Z" fill="#0F569E"/>
</g>
</g>
</svg>
