<svg width="100" height="100" viewBox="0 0 100 100" fill="none" xmlns="http://www.w3.org/2000/svg">
<path d="M79.7792 59.9579C79.6109 59.7056 79.4532 59.4637 79.2533 59.2639C76.0561 56.0463 72.8484 52.8391 69.6407 49.632L68.4838 48.4858C67.5373 47.5394 66.6118 47.5394 65.6547 48.4858C65.1078 49.0221 64.5715 49.5689 64.0456 50.0946L63.2884 50.8517L61.6267 49.1588L64.6241 46.1724C66.0965 44.7003 67.5688 43.2282 69.0518 41.7455C70.4821 40.3155 70.4821 38.6751 69.0518 37.2345C66.9799 35.163 64.9185 33.102 62.8467 31.041C61.4164 29.6004 59.7652 29.6004 58.3348 31.041L51.383 37.9811C51.2779 38.0862 51.1622 38.1914 51.078 38.265L50.9098 38.4227L49.1745 36.7298L49.227 36.6351C49.227 36.6351 49.2586 36.5825 49.2901 36.551L51.4146 34.4269C52.4873 33.3544 52.4873 32.4816 51.4356 31.4196L49.5636 29.5584C46.7766 26.7613 43.8844 23.8696 41.0237 21.0305C40.7503 20.7571 40.4348 20.5258 40.1192 20.2944C39.9825 20.1998 39.8458 20.0946 39.7091 20H38.8572C38.731 20.0946 38.5943 20.1998 38.4575 20.2944C38.1525 20.5258 37.8265 20.7676 37.5531 21.041C35.9229 22.6498 34.2823 24.3007 32.6837 25.8885L31.2639 27.3186C30.2542 28.3281 30.2437 29.2219 31.2428 30.2313C34.8291 33.8065 38.405 37.3817 41.9808 40.9569C42.9799 41.9558 43.8738 41.9558 44.894 40.9464C45.6092 40.2313 46.3243 39.5058 47.0185 38.8118L47.7441 38.0862L49.5531 39.8423L48.1122 41.2829C46.2402 43.1441 44.2945 45.0789 42.3804 46.9716C42.2437 47.1083 41.9913 47.1924 41.6547 47.2135C39.1096 47.3922 36.8484 48.265 34.9238 49.8002C34.419 50.2103 34.135 50.6835 34.114 51.1672C34.0824 51.6614 34.3138 52.1767 34.7766 52.6393L48.5855 66.4458C49.0062 66.8665 49.49 67.0978 49.9738 67.0978C49.9948 67.0978 50.0263 67.0873 50.0474 67.0873C50.5206 67.0662 50.9624 66.8244 51.3199 66.3933C53.4128 63.817 54.2858 60.8202 53.9177 57.4974C53.8861 57.1924 54.0228 56.7928 54.2332 56.5825C55.4321 55.3523 56.6731 54.122 57.8616 52.9232C58.44 52.3554 59.0185 51.7771 59.5864 51.1987C59.7231 51.0726 59.8388 50.9148 59.9545 50.7781C60.0176 50.7045 60.0702 50.6309 60.1333 50.5573L60.2279 50.4522L61.9738 52.1767L61.0798 53.0599C60.3857 53.7539 59.6915 54.4479 59.0079 55.1314C58.0509 56.0883 58.0404 57.0137 58.9869 57.96C62.5943 61.5668 66.2016 65.1735 69.809 68.7802C70.7555 69.7266 71.681 69.7161 72.6381 68.7592L74.0369 67.3607C75.6355 65.7623 77.2972 64.1115 78.9168 62.4711C79.1902 62.1872 79.4321 61.8612 79.674 61.5457C79.7792 61.3985 79.8844 61.2618 80 61.1251V60.2734C79.9264 60.1682 79.8528 60.0526 79.7792 59.9474V59.9579ZM43.4321 39.7897L32.4102 28.7697L39.2674 21.9243L50.2893 32.9443L43.4321 39.7897ZM50.0579 65.1419L49.9632 65.2471L49.8686 65.1419L35.9965 51.2829L36.1017 51.1882C39.1096 48.4332 44.894 47.8023 49.0167 51.5773C53.3708 55.5626 52.9501 61.7245 50.0579 65.1419ZM53.7704 54.5636C53.7704 54.5636 53.6653 54.6688 53.5916 54.7213L53.3392 54.9316L53.2656 54.7739C51.6249 50.8622 48.8274 48.4648 44.7257 47.4448L44.5049 47.3922L44.8204 47.0557C44.915 46.9401 44.9992 46.8454 45.0938 46.7613C49.9001 41.9453 54.7064 37.1399 59.5233 32.3239C60.3436 31.5037 60.8379 31.5037 61.6372 32.3239L62.6048 33.2808C64.3611 35.0368 66.128 36.8034 67.8844 38.5594C68.5469 39.2324 68.5469 39.8002 67.8844 40.4627C63.1832 45.1735 58.4821 49.8738 53.7704 54.5741V54.5636ZM77.9808 60.9464C77.9282 61.0095 77.8546 61.0831 77.7809 61.1567L71.2814 67.6656L60.1858 56.551L67.0745 49.674L78.149 60.7676L77.9808 60.9464Z" fill="#0F569E"/>
<path d="M42.2016 80.0004H40.4768C40.1087 79.9373 39.7301 79.8742 39.362 79.8217C38.5732 79.6955 37.7634 79.5693 36.9641 79.4011C28.5609 77.5819 21.7248 70.379 20.3471 61.8827C20.2629 61.3464 20.1788 60.8101 20.1052 60.2738L20 59.5378V57.7081C20.0526 57.6555 20.1157 57.6029 20.1683 57.5504C20.326 57.4137 20.4628 57.277 20.6205 57.2139C20.8729 57.1298 21.1253 57.1508 21.3252 57.2875C21.5776 57.4662 21.7353 57.7817 21.7353 58.1708C21.7879 60.6524 22.156 62.7764 22.8712 64.6587C25.7634 72.2086 31.2533 76.7091 39.1937 78.0341C40.0035 78.1708 40.8238 78.2128 41.6652 78.2444C42.2542 78.2549 42.6538 78.3811 42.7905 78.8858C42.9167 79.359 42.7169 79.727 42.2016 80.0004Z" fill="#0F569E"/>
<path d="M42.8134 73.0301C42.845 73.4927 42.561 73.8608 42.1088 73.9449C42.0036 73.9659 41.8879 73.9764 41.7933 73.9764H41.6671C33.6741 73.7136 27.1429 67.825 26.1438 59.9806C26.0807 59.4549 26.0387 58.866 26.0281 58.1825C26.0176 57.8671 26.1123 57.5937 26.2805 57.4149C26.4278 57.2677 26.6381 57.1836 26.8905 57.1836H26.9011C27.4374 57.1836 27.7424 57.5306 27.7635 58.1615C27.8791 62.1994 29.3726 65.6168 32.2017 68.3192C34.7573 70.7483 37.9124 72.0627 41.5619 72.2204H41.7091C41.8143 72.2309 41.9195 72.2309 42.0246 72.2414C42.4874 72.294 42.7924 72.5989 42.8134 73.0301Z" fill="#0F569E"/>
<path d="M42.8108 67.1298C42.7898 67.6451 42.4006 67.9395 41.7696 67.9395H41.696C36.3954 67.7712 32.157 63.5231 32.0518 58.276C32.0308 57.5925 32.3358 57.1929 32.8827 57.1824C32.9037 57.1719 32.9142 57.1719 32.9247 57.1719C33.4506 57.1719 33.7451 57.5189 33.7976 58.2024V58.3811C33.8187 58.4758 33.8187 58.5704 33.8292 58.6756C34.1973 62.0825 35.9852 64.4379 39.1508 65.6682C39.8239 65.9311 40.5601 66.0257 41.2753 66.1098C41.4541 66.1414 41.6329 66.1624 41.8117 66.1834C42.7582 66.3201 42.8318 66.7933 42.8108 67.1298Z" fill="#0F569E"/>
</svg>
