<svg width="68" height="68" viewBox="0 0 68 68" fill="none" xmlns="http://www.w3.org/2000/svg">
<g opacity="0.5">
<path d="M56.6132 43.8753C53.0749 43.8753 49.6781 43.3091 46.5078 42.2618C46.0101 42.1033 45.4787 42.0827 44.9702 42.2024C44.4618 42.322 43.9953 42.5773 43.6205 42.9411L37.3931 49.1686C29.3574 45.0817 22.826 38.5503 18.7391 30.5146L24.9665 24.2589C25.3415 23.9032 25.6072 23.448 25.7325 22.9466C25.8578 22.4452 25.8376 21.9185 25.6742 21.4282C24.6004 18.1675 24.0557 14.7558 24.0607 11.3228C24.0607 9.76598 22.7869 8.49219 21.2301 8.49219H11.3228C9.76598 8.49219 8.49219 9.76598 8.49219 11.3228C8.49219 37.9026 30.0334 59.4438 56.6132 59.4438C58.17 59.4438 59.4438 58.17 59.4438 56.6132V46.7059C59.4438 45.149 58.17 43.8753 56.6132 43.8753ZM53.7825 33.968H59.4438C59.4438 27.2114 56.7598 20.7315 51.9821 15.9539C47.2045 11.1762 40.7246 8.49219 33.968 8.49219V14.1535C44.9226 14.1535 53.7825 23.0134 53.7825 33.968ZM42.4599 33.968H48.1212C48.1212 26.1554 41.7806 19.8148 33.968 19.8148V25.4761C38.6669 25.4761 42.4599 29.2691 42.4599 33.968Z" fill="#FAFAFA"/>
</g>
</svg>
