<svg width="69" height="68" viewBox="0 0 69 68" fill="none" xmlns="http://www.w3.org/2000/svg">
<g opacity="0.5">
<path d="M51.2591 51.5794C48.1171 51.5794 45.5978 54.0987 45.5978 57.2407C45.5978 58.7421 46.1942 60.1821 47.2559 61.2438C48.3176 62.3055 49.7576 62.902 51.2591 62.902C52.7605 62.902 54.2005 62.3055 55.2622 61.2438C56.3239 60.1821 56.9204 58.7421 56.9204 57.2407C56.9204 55.7392 56.3239 54.2992 55.2622 53.2375C54.2005 52.1758 52.7605 51.5794 51.2591 51.5794ZM5.96875 6.28906V11.9504H11.63L21.8204 33.4349L17.9707 40.37C17.5461 41.1626 17.2913 42.0967 17.2913 43.0874C17.2913 44.5889 17.8878 46.0289 18.9495 47.0906C20.0112 48.1523 21.4512 48.7487 22.9526 48.7487H56.9204V43.0874H24.1415C23.9538 43.0874 23.7738 43.0129 23.6411 42.8802C23.5084 42.7475 23.4338 42.5675 23.4338 42.3798C23.4338 42.2383 23.4621 42.125 23.5187 42.0401L26.0663 37.4262H47.1546C49.2776 37.4262 51.1458 36.2373 52.1083 34.5106L62.242 16.1963C62.4401 15.7434 62.5816 15.2622 62.5816 14.781C62.5816 14.0303 62.2834 13.3103 61.7526 12.7794C61.2217 12.2486 60.5017 11.9504 59.751 11.9504H17.8858L15.225 6.28906M22.9526 51.5794C19.8106 51.5794 17.2913 54.0987 17.2913 57.2407C17.2913 58.7421 17.8878 60.1821 18.9495 61.2438C20.0112 62.3055 21.4512 62.902 22.9526 62.902C24.4541 62.902 25.8941 62.3055 26.9558 61.2438C28.0175 60.1821 28.6139 58.7421 28.6139 57.2407C28.6139 55.7392 28.0175 54.2992 26.9558 53.2375C25.8941 52.1758 24.4541 51.5794 22.9526 51.5794Z" fill="#FAFAFA"/>
</g>
</svg>
