<svg width="100" height="100" viewBox="0 0 100 100" fill="none" xmlns="http://www.w3.org/2000/svg">
<path fill-rule="evenodd" clip-rule="evenodd" d="M50 21.25C34.1218 21.25 21.25 34.1218 21.25 50C21.25 65.8782 34.1218 78.75 50 78.75C65.8782 78.75 78.75 65.8782 78.75 50C78.75 34.1218 65.8782 21.25 50 21.25ZM18.75 50C18.75 32.7411 32.7411 18.75 50 18.75C67.2589 18.75 81.25 32.7411 81.25 50C81.25 67.2589 67.2589 81.25 50 81.25C32.7411 81.25 18.75 67.2589 18.75 50Z" fill="#0F569E"/>
<path fill-rule="evenodd" clip-rule="evenodd" d="M40.3879 51.7304C42.951 49.4114 46.3366 48.0156 50.0482 48.0156C53.7658 48.0156 57.1308 49.4313 59.7019 51.7245C60.2171 52.184 60.2623 52.9742 59.8028 53.4894C59.3432 54.0046 58.5531 54.0497 58.0379 53.5902C55.8956 51.6796 53.1141 50.5156 50.0482 50.5156C46.9764 50.5156 44.1837 51.6676 42.0652 53.5843C41.5533 54.0474 40.7628 54.0079 40.2997 53.496C39.8365 52.9841 39.876 52.1936 40.3879 51.7304Z" fill="#0F569E"/>
<path fill-rule="evenodd" clip-rule="evenodd" d="M50.0476 43.082C45.083 43.082 40.5369 44.9651 37.094 48.0637C36.5809 48.5255 35.7905 48.4839 35.3287 47.9708C34.8669 47.4576 34.9085 46.6673 35.4216 46.2055C39.3036 42.7117 44.439 40.582 50.0476 40.582C55.6562 40.582 60.7917 42.7117 64.6736 46.2055C65.1868 46.6673 65.2284 47.4576 64.7666 47.9708C64.3047 48.4839 63.5144 48.5255 63.0012 48.0637C59.5584 44.9651 55.0123 43.082 50.0476 43.082Z" fill="#0F569E"/>
<path fill-rule="evenodd" clip-rule="evenodd" d="M40.3879 51.7304C42.951 49.4114 46.3366 48.0156 50.0482 48.0156C53.7658 48.0156 57.1308 49.4313 59.7019 51.7245C60.2171 52.184 60.2623 52.9742 59.8028 53.4894C59.3432 54.0046 58.5531 54.0497 58.0379 53.5902C55.8956 51.6796 53.1141 50.5156 50.0482 50.5156C46.9764 50.5156 44.1837 51.6676 42.0652 53.5843C41.5533 54.0474 40.7628 54.0079 40.2997 53.496C39.8365 52.9841 39.876 52.1936 40.3879 51.7304Z" fill="#0F569E"/>
<path fill-rule="evenodd" clip-rule="evenodd" d="M50.0485 57.9531C48.9045 57.9531 47.8476 58.3878 47.0503 59.1103C46.5388 59.5738 45.7483 59.535 45.2847 59.0234C44.8211 58.5119 44.86 57.7214 45.3715 57.2578C46.6126 56.1331 48.2626 55.4531 50.0485 55.4531C51.8308 55.4531 53.4976 56.1306 54.7414 57.2578C55.253 57.7214 55.2919 58.5119 54.8283 59.0234C54.3647 59.535 53.5742 59.5738 53.0626 59.1103C52.2682 58.3903 51.1962 57.9531 50.0485 57.9531Z" fill="#0F569E"/>
</svg>
