<svg width="100" height="100" viewBox="0 0 100 100" fill="none" xmlns="http://www.w3.org/2000/svg">
<path fill-rule="evenodd" clip-rule="evenodd" d="M53.8393 38.2148C52.1046 38.2148 50.7095 39.62 50.7095 41.3446V70.9241C50.7095 71.4297 50.4049 71.8855 49.9378 72.079C49.4707 72.2724 48.9331 72.1655 48.5756 71.808L44.2593 67.4917C42.0672 65.2997 38.5424 65.2186 36.2412 67.3099L35.8174 67.6958L47.6453 79.1013C48.1423 79.5805 48.1566 80.3718 47.6774 80.8688C47.1982 81.3657 46.4069 81.3801 45.91 80.9009L33.4771 68.912C32.7116 68.1946 32.8453 67.077 33.4526 66.4697C33.4664 66.4559 33.4805 66.4425 33.495 66.4293L34.5582 65.4613C37.8428 62.4753 42.8874 62.5842 46.027 65.7239L48.2095 67.9063V41.3446C48.2095 38.2452 50.718 35.7148 53.8393 35.7148C56.9387 35.7148 59.4691 38.2234 59.4691 41.3446V55.5605L70.3337 59.1036C76.7967 61.2172 80.7275 67.7676 79.5398 74.4745L78.5078 80.222C78.3858 80.9015 77.7361 81.3534 77.0566 81.2314C76.3771 81.1094 75.9252 80.4597 76.0472 79.7802L77.0781 74.0386C77.078 74.0393 77.0783 74.0379 77.0781 74.0386C78.0473 68.5593 74.8372 63.2072 69.5586 61.4804L57.8315 57.656C57.3171 57.4883 56.9691 57.0087 56.9691 56.4676V41.3446C56.9691 39.61 55.5639 38.2148 53.8393 38.2148Z" fill="#0F569E"/>
<path fill-rule="evenodd" clip-rule="evenodd" d="M21.25 33.2346C21.25 25.2297 27.7277 18.75 35.7187 18.75C37.9913 18.75 40.1282 19.271 42.0376 20.191C42.6595 20.4907 42.9207 21.2378 42.6211 21.8597C42.3214 22.4816 41.5743 22.7429 40.9524 22.4432C39.3706 21.6811 37.6037 21.25 35.7187 21.25C29.1104 21.25 23.75 26.6084 23.75 33.2346C23.75 39.8588 29.1084 45.2033 35.7187 45.2033C37.6037 45.2033 39.3706 44.7722 40.9524 44.0101C41.5743 43.7104 42.3214 43.9717 42.6211 44.5936C42.9207 45.2156 42.6595 45.9627 42.0376 46.2623C40.1282 47.1823 37.9913 47.7033 35.7187 47.7033C27.7297 47.7033 21.25 41.2415 21.25 33.2346Z" fill="#0F569E"/>
<path fill-rule="evenodd" clip-rule="evenodd" d="M48.4126 25.4695C48.8889 25.9691 48.8701 26.7604 48.3704 27.2367L37.1353 37.9482C36.8711 38.2001 36.51 38.3239 36.1468 38.2871C35.7836 38.2503 35.4547 38.0567 35.2463 37.7569L30.9776 31.6157C30.5836 31.0488 30.7237 30.2699 31.2906 29.8759C31.8574 29.4818 32.6364 29.6219 33.0304 30.1888L36.4663 35.1319L46.6453 25.4273C47.145 24.9509 47.9362 24.9698 48.4126 25.4695Z" fill="#0F569E"/>
</svg>
