<svg width="100" height="100" viewBox="0 0 100 100" fill="none" xmlns="http://www.w3.org/2000/svg">
<g id="Icones">
<g id="Layer_1-2">
<path id="Vector (Stroke)" fill-rule="evenodd" clip-rule="evenodd" d="M42.5261 33.1198C43.8141 32.7655 44.948 32.7266 45.4553 32.7266C45.8373 32.7266 46.1983 32.9012 46.4353 33.2007C47.1476 34.1003 47.9165 35.1918 48.6458 36.5008L48.6485 36.5056L48.6485 36.5056C49.373 37.8194 49.9119 39.0569 50.3045 40.1527C50.4085 40.4427 50.4016 40.7609 50.2853 41.0462C50.1042 41.4902 49.2788 43.2878 47.256 44.2038C47.0194 44.3137 46.7873 44.4002 46.5641 44.4681C47.3078 46.2358 48.3696 48.3009 49.9 50.4323L49.9003 50.4327C51.398 52.5202 52.9702 54.1572 54.3769 55.4189C54.5133 55.2311 54.6698 55.0407 54.8497 54.8526C56.3753 53.2333 58.3561 53.0523 58.8054 53.0213C59.1195 52.9997 59.4301 53.0974 59.6754 53.2948C60.5813 54.0244 61.5765 54.9388 62.5824 56.0512L62.588 56.0574L62.588 56.0574C63.585 57.1747 64.3666 58.2521 64.9862 59.221C65.1959 59.549 65.2408 59.956 65.1077 60.3218C64.9405 60.781 64.5337 61.8406 63.78 62.9441C63.0283 64.0446 61.8823 65.2608 60.2116 65.927L60.206 65.9293C58.2044 66.7162 55.9579 66.5403 52.727 65.0139C52.6521 64.9785 52.5818 64.9362 52.5168 64.8881C44.1924 60.8696 37.9687 52.0609 36.9701 42.8842C36.5791 39.3402 37.1298 37.1554 38.5473 35.5237C39.7218 34.1634 41.2414 33.4732 42.5261 33.1198ZM43.1892 35.5302C42.1968 35.8032 41.1835 36.2953 40.4387 37.1586L40.4356 37.1621L40.4356 37.1621C39.6535 38.0617 39.1042 39.431 39.4551 42.6108L39.4553 42.6128C40.368 51.0031 46.1522 59.1284 53.7936 62.7272C53.8658 62.7612 53.9336 62.8016 53.9967 62.8475C56.7482 64.112 58.1944 64.033 59.2883 63.6038C60.3419 63.1828 61.1338 62.3859 61.7156 61.534C62.0861 60.9915 62.3516 60.4558 62.5315 60.0392C62.0372 59.3118 61.4436 58.5302 60.7254 57.7249C59.9639 56.8832 59.2128 56.1704 58.5155 55.5793C58.0193 55.6797 57.2667 55.9316 56.667 56.5694L56.6584 56.5785L56.6584 56.5785C56.247 57.0074 56.0525 57.4684 55.9401 57.7949C55.8073 58.1811 55.494 58.4781 55.1013 58.5902C54.7085 58.7024 54.2857 58.6155 53.9689 58.3576C52.1777 56.8992 49.9572 54.8006 47.869 51.89C45.7404 48.9254 44.4507 46.0816 43.6536 43.8915C43.5142 43.5082 43.5704 43.0811 43.8044 42.747C44.0383 42.4129 44.4205 42.214 44.8283 42.214C45.1712 42.214 45.6776 42.1814 46.2066 41.9347L46.2207 41.9282L46.2208 41.9282C47.0254 41.5651 47.5134 40.9327 47.7673 40.5031C47.4375 39.6518 47.0092 38.7104 46.4606 37.7153C45.9359 36.7736 45.3872 35.9559 44.8575 35.2487C44.412 35.2807 43.8214 35.3563 43.1892 35.5302Z" fill="#0F569E"/>
<path id="Vector (Stroke)_2" fill-rule="evenodd" clip-rule="evenodd" d="M61.1565 23.5045C54.9507 20.8942 48.0339 20.5389 41.5953 22.4996C35.1569 24.4603 29.6032 28.6264 25.9514 34.2469L25.9489 34.2507C22.2584 39.8863 20.6757 46.6257 21.4361 53.3061C22.2087 59.9953 25.3108 66.1947 30.1912 70.8262L30.1991 70.8338C30.8115 71.4253 31.1779 72.2364 31.219 73.0785C31.22 73.0988 31.2205 73.1191 31.2205 73.1394V73.356C31.2205 73.3798 31.2198 73.4044 31.2185 73.4281C31.1772 74.1503 30.8942 74.8391 30.4669 75.3825C30.4417 75.4145 30.415 75.4452 30.3869 75.4746L28.1987 77.7587L35.8924 75.8762C35.9189 75.8697 35.9456 75.8641 35.9724 75.8594C36.6526 75.7394 37.3347 75.8205 37.9816 76.1223C41.427 77.7021 45.1292 78.5839 48.9187 78.731C55.6508 78.9754 62.2477 76.8555 67.5695 72.7511C72.8935 68.6322 76.6202 62.787 78.0664 56.2227C79.5256 49.6555 78.631 42.7792 75.5406 36.7993C72.4499 30.8187 67.3726 26.114 61.1565 23.5045ZM62.1258 21.2001C55.3818 18.3634 47.8645 17.9771 40.867 20.108C33.8702 22.2388 27.8309 26.7666 23.8562 32.883C19.8445 39.0101 18.1262 46.3344 18.9522 53.5899C19.7918 60.8608 23.1629 67.6007 28.4653 72.6349C28.6131 72.7792 28.7049 72.9795 28.7205 73.1771V73.3121C28.706 73.4659 28.6418 73.6428 28.5313 73.7977L23.4247 79.1281C23.0403 79.5294 22.967 80.1363 23.2447 80.6177C23.5225 81.099 24.0847 81.3391 24.6245 81.207L36.4394 78.3161C36.6137 78.2908 36.7655 78.3134 36.9261 78.3886L36.9351 78.3928C40.68 80.1106 44.7051 81.0694 48.8221 81.2291L48.8251 81.2292C56.142 81.4956 63.3125 79.1917 69.097 74.7302C74.8796 70.2568 78.9341 63.9032 80.5077 56.7611C82.0936 49.622 81.1202 42.1505 77.7616 35.6515C74.4031 29.1529 68.8847 24.0376 62.1258 21.2001Z" fill="#0F569E"/>
</g>
</g>
</svg>
