<svg width="100" height="100" viewBox="0 0 100 100" fill="none" xmlns="http://www.w3.org/2000/svg">
<path fill-rule="evenodd" clip-rule="evenodd" d="M25.0362 57.5994C25.6248 55.8727 27.2526 54.6914 29.0884 54.6914H34.6037C35.2941 54.6914 35.8537 55.2511 35.8537 55.9414C35.8537 56.6318 35.2941 57.1914 34.6037 57.1914H29.0884C28.3349 57.1914 27.6518 57.6797 27.4037 58.4023C27.4033 58.4035 27.4029 58.4048 27.4024 58.406L21.2922 76.7647C21.292 76.7652 21.2923 76.7643 21.2922 76.7647C21.1265 77.27 21.4917 77.7695 22.0132 77.7695H77.9883C78.5083 77.7695 78.8742 77.2597 78.7105 76.7685L72.5837 58.402C72.5836 58.4017 72.5838 58.4023 72.5837 58.402C72.3368 57.6706 71.6708 57.1914 70.8991 57.1914H65.3838C64.6934 57.1914 64.1338 56.6318 64.1338 55.9414C64.1338 55.2511 64.6934 54.6914 65.3838 54.6914H70.8991C72.7456 54.6914 74.3638 55.8562 74.9527 57.6034L74.954 57.6071L81.0821 75.9777C81.7819 78.077 80.2259 80.2695 77.9883 80.2695H22.0132C19.7774 80.2695 18.2212 78.0944 18.918 75.9817L18.919 75.9785L25.0362 57.5994Z" fill="#0F569E"/>
<path fill-rule="evenodd" clip-rule="evenodd" d="M49.9933 23.75C42.1874 23.75 35.8544 30.0845 35.8672 37.888L35.8672 37.89C35.8672 39.336 36.4008 41.3888 37.3611 43.8513C38.3086 46.2811 39.6219 48.9878 41.0727 51.6978C43.9732 57.1158 47.3758 62.4592 49.3654 65.4747L49.3676 65.4781C49.6679 65.9365 50.3326 65.9365 50.633 65.4781L50.6341 65.4764C52.6177 62.4594 56.0204 57.1157 58.9228 51.6975C60.3745 48.9874 61.6891 46.2806 62.6377 43.8509C63.5991 41.3883 64.1333 39.3357 64.1333 37.89C64.1333 30.0845 57.7988 23.75 49.9933 23.75ZM33.3672 37.8911C33.3527 28.7033 40.8078 21.25 49.9933 21.25C59.1795 21.25 66.6333 28.7038 66.6333 37.89C66.6333 39.8218 65.9524 42.2348 64.9665 44.76C63.9679 47.3181 62.6031 50.1215 61.1266 52.878C58.1724 58.3929 54.7227 63.8084 52.723 66.8498C51.4355 68.8125 48.5652 68.8126 47.2776 66.8499C45.2698 63.8067 41.8207 58.3919 38.8686 52.8777C37.3929 50.1211 36.0294 47.3177 35.0319 44.7596C34.0473 42.2347 33.3674 39.8224 33.3672 37.8911ZM33.3672 37.8911C33.3672 37.8907 33.3672 37.8904 33.3672 37.89H34.6172L33.3672 37.8921C33.3672 37.8917 33.3672 37.8914 33.3672 37.8911Z" fill="#0F569E"/>
<path fill-rule="evenodd" clip-rule="evenodd" d="M43.72 36.4046C42.9014 39.8727 45.0493 43.3476 48.5173 44.1662C51.9854 44.9847 55.4603 42.8369 56.2789 39.3688C57.0974 35.9008 54.9495 32.4258 51.4815 31.6073C48.0135 30.7888 44.5385 32.9366 43.72 36.4046ZM47.9431 46.5993C43.1312 45.4636 40.1511 40.6422 41.2868 35.8304C42.4225 31.0185 47.2439 28.0384 52.0558 29.1741C56.8676 30.3098 59.8477 35.1313 58.712 39.9431C57.5763 44.7549 52.7549 47.735 47.9431 46.5993Z" fill="#0F569E"/>
</svg>
