<svg width="184" height="45" viewBox="0 0 184 45" fill="none" xmlns="http://www.w3.org/2000/svg">
<g id="Logo" clip-path="url(#clip0_644_2648)">
<g id="Page-1">
<g id="Group">
<path id="polygon3786" d="M0 0V23.5962H7.00727V14.5962H15.2578V23.5962H22.265V0H15.2578V8.36539H7.00727V0H0Z" fill="white"/>
<path id="path3788" d="M37.1849 21.6917C36.2242 22.7879 34.3593 23.9994 31.4208 23.9994C27.5216 23.9994 25.8828 21.634 25.8828 18.6917V6.46094H32.0989V15.9225C32.0989 17.6532 33.0031 18.3456 34.5289 18.3456C35.9416 18.3456 36.6198 17.5956 37.1849 17.0186V6.46094H43.401V23.5379H37.1849V21.6917Z" fill="white"/>
<path id="path3790" d="M57.8101 12.8095C57.245 12.1172 56.0583 11.7133 55.2672 11.7133C53.5719 11.7133 52.1591 12.521 52.1591 14.598C52.1591 16.6749 53.5719 17.4826 55.2672 17.4826C56.0583 17.4826 57.245 17.0787 57.8101 16.3864V12.8095ZM48.938 23.4826C50.2377 24.8095 52.1026 25.3864 53.9109 25.3864C55.3802 25.3864 57.8101 24.8095 57.8101 21.8095V20.8864C56.3974 22.5595 54.8151 23.1941 53.1198 23.1941C49.1075 23.1941 45.7734 20.4826 45.7734 14.6556C45.7734 8.94411 48.9945 6.11719 53.1198 6.11719C54.8716 6.11719 56.5104 6.69411 57.8101 8.36719V6.57873H64.0262V21.8095C64.0262 29.1941 58.0362 30.5787 53.9109 30.5787C51.0289 30.5787 48.4859 29.771 46.282 28.0403L48.938 23.4826Z" fill="white"/>
<path id="path3792" d="M78.888 14.0769C78.888 12.2885 77.9273 11.7115 76.458 11.7115C75.0453 11.7115 74.3107 12.4615 73.8021 13.0385V23.5962H67.5859V0H73.8021V8.48077C74.7627 7.32692 76.6276 6.11538 79.5661 6.11538C83.4653 6.11538 85.1606 8.42308 85.1606 11.4231V23.6538H78.9445V14.0769H78.888Z" fill="white"/>
<path id="path3794" d="M93.8063 12.9826H99.3443C99.1748 12.2326 98.5532 10.9056 96.5753 10.9056C94.654 10.9633 94.0324 12.2326 93.8063 12.9826ZM96.5753 6.11719C101.492 6.11719 105.278 9.7518 105.278 15.7518V17.0787H93.9194C94.2584 18.1749 95.5017 19.2133 97.5925 19.2133C99.0053 19.2133 100.531 18.6941 101.379 18.0018L103.922 21.9249C102.283 23.3672 99.2878 24.0595 96.8014 24.0595C91.5459 24.0595 87.4772 20.7133 87.4772 15.0595C87.4207 10.098 91.1504 6.11719 96.5753 6.11719Z" fill="white"/>
<path id="path3796" d="M108.5 17.1364C109.8 18.1749 112.682 19.271 114.547 19.271C115.847 19.271 116.186 18.9249 116.186 18.4633C116.186 17.8864 115.451 17.7133 113.812 17.4826C110.987 17.0787 106.692 16.5595 106.692 11.9441C106.692 8.88642 109.348 6.11719 114.208 6.11719C117.033 6.11719 119.52 6.98257 121.441 8.3095L119.181 12.4633C118.164 11.598 116.186 10.6749 114.264 10.6749C113.36 10.6749 112.682 10.9056 112.682 11.4249C112.682 11.9441 113.191 12.1172 114.829 12.4056C117.655 12.8095 122.176 13.4441 122.176 18.2326C122.176 21.6364 119.181 24.1172 114.264 24.1172C111.156 24.1172 107.879 23.021 106.07 21.521L108.5 17.1364Z" fill="white"/>
<path id="polygon3798" d="M129.295 0L141.106 16.7308V0H145.118V23.5962H141.219L129.182 6.40385V23.5962H125.113V0H129.295Z" fill="white"/>
<path id="path3800" d="M152.692 13.6749H162.13C162.073 11.6556 160.717 9.11719 157.439 9.11719C154.275 9.11719 152.862 11.598 152.692 13.6749ZM157.439 6.11719C162.469 6.11719 165.69 10.0403 165.69 15.4056V16.271H152.749C153.031 18.8672 154.953 21.0018 158.061 21.0018C159.7 21.0018 161.621 20.3095 162.808 19.098L164.447 21.521C162.808 23.1364 160.321 24.0018 157.665 24.0018C152.636 24.0018 148.906 20.4249 148.906 15.0018C148.906 10.098 152.466 6.11719 157.439 6.11719Z" fill="white"/>
<path id="path3802" d="M169.984 19.6716V9.80619H167.215V6.57542H169.984V1.90234H173.601V6.57542H176.991V9.80619H173.601V18.7485C173.601 19.9023 174.166 20.7677 175.183 20.7677C175.861 20.7677 176.539 20.4793 176.822 20.1908L177.669 22.96C176.991 23.5947 175.917 24.0562 174.222 24.0562C171.51 24.0562 169.984 22.4985 169.984 19.6716Z" fill="white"/>
<path id="path3804" d="M181.171 21.5784H181.51C181.736 21.5784 181.849 21.5784 181.905 21.5784C181.962 21.5784 182.018 21.5207 182.018 21.463C182.075 21.4053 182.075 21.3477 182.075 21.29C182.075 21.2323 182.075 21.1746 182.018 21.1169C181.962 21.0592 181.905 21.0592 181.849 21.0015C181.792 21.0015 181.679 21.0015 181.51 21.0015H181.171V21.5784ZM180.719 22.9053V20.5977H181.679C181.905 20.5977 182.075 20.5977 182.188 20.6553C182.301 20.713 182.414 20.7707 182.471 20.8861C182.527 21.0015 182.584 21.1169 182.584 21.2323C182.584 21.4053 182.527 21.5784 182.414 21.6938C182.301 21.8092 182.188 21.8669 181.962 21.9246C182.075 21.9823 182.132 22.04 182.188 22.0977C182.245 22.1553 182.358 22.2707 182.471 22.5015L182.753 22.963H182.188L181.849 22.4438C181.736 22.2707 181.623 22.1553 181.623 22.0977C181.566 22.04 181.51 22.04 181.51 21.9823C181.453 21.9823 181.397 21.9823 181.284 21.9823H181.171V22.963H180.719V22.9053Z" fill="white"/>
<path id="path3806" d="M181.735 19.9624C180.718 19.9624 179.927 20.7701 179.927 21.8086C179.927 22.8471 180.718 23.6547 181.735 23.6547C182.752 23.6547 183.543 22.8471 183.543 21.8086C183.487 20.7701 182.696 19.9624 181.735 19.9624ZM181.735 24.0586C180.548 24.0586 179.531 23.0778 179.531 21.8086C179.531 20.5971 180.492 19.5586 181.735 19.5586C182.978 19.5586 183.939 20.5394 183.939 21.8086C183.883 23.0201 182.922 24.0586 181.735 24.0586Z" fill="white"/>
<path id="path3808" d="M183.15 43.6142C182.867 43.6142 182.698 43.845 182.698 44.0757C182.698 44.3642 182.924 44.595 183.15 44.595C183.432 44.595 183.602 44.3642 183.602 44.0757C183.602 43.845 183.432 43.6142 183.15 43.6142ZM181.285 40.095V39.2873H177.612V44.5373H181.398V43.7296H178.516V42.2873H181.002V41.5373H178.516V40.095H181.285ZM176.199 40.095V39.2873H172.074V40.095H173.713V44.5373H174.56V40.095H176.199ZM170.717 44.5373V39.2873H169.87V44.5373H170.717ZM166.197 43.7296V39.2873H165.349V44.5373H168.457V43.7296H166.197ZM163.541 40.095V39.2873H159.868V44.5373H163.654V43.7296H160.772V42.2873H163.258V41.5373H160.772V40.095H163.541ZM162.863 38.018L162.015 37.6719L161.224 38.768H161.958L162.863 38.018ZM158.511 40.095V39.2873H154.386V40.095H156.025V44.5373H156.872V40.095H158.511ZM152.408 42.5757H150.487L151.447 40.268L152.408 42.5757ZM152.747 43.3834L153.256 44.595H154.16L151.9 39.345H151.052L148.791 44.595H149.696L150.204 43.3834H152.747ZM145.966 39.2873C144.836 39.2873 144.101 39.8642 144.101 40.7296C144.101 42.5757 146.87 41.9411 146.87 43.095C146.87 43.4988 146.531 43.7296 145.909 43.7296C145.344 43.7296 144.723 43.4411 144.158 42.9796L143.762 43.7296C144.271 44.2488 145.062 44.5373 145.853 44.5373C146.983 44.5373 147.774 43.9603 147.774 43.0373C147.774 41.1334 145.005 41.768 145.005 40.6142C145.005 40.268 145.344 40.095 145.853 40.095C146.249 40.095 146.814 40.2103 147.379 40.5565L147.718 39.7488C147.266 39.4603 146.644 39.2873 145.966 39.2873ZM139.298 42.5757H137.376L138.337 40.268L139.298 42.5757ZM139.637 43.3834L140.145 44.595H141.05L138.789 39.345H137.885L135.625 44.595H136.529L137.037 43.3834H139.637ZM134.325 44.5373V39.2873H133.477V44.5373H134.325ZM130.087 44.5373L132.177 39.2873H131.273L129.691 43.5565L128.109 39.2873H127.148L129.182 44.5373H130.087ZM124.549 40.095V39.2873H120.423V40.095H122.062V44.5373H122.91V40.095H124.549ZM119.237 40.095V39.2873H115.563V44.5373H119.35V43.7296H116.468V42.2873H118.954V41.5373H116.468V40.095H119.237ZM113.586 44.5373V39.2873H112.738V43.0373L109.969 39.2873H109.121V44.5373H109.969V40.7873L112.681 44.5373H113.586ZM104.035 42.1719V40.095H105.279C106.07 40.095 106.522 40.4411 106.522 41.1334C106.522 41.8257 106.07 42.1719 105.279 42.1719H104.035ZM106.409 44.5373H107.369L106.239 42.8065C106.917 42.518 107.313 41.9411 107.313 41.0757C107.313 39.9219 106.578 39.2873 105.222 39.2873H103.131V44.5373H103.979V42.9796H105.222C105.279 42.9796 105.392 42.9796 105.448 42.9796L106.409 44.5373ZM101.379 40.095V39.2873H97.7062V44.5373H101.492V43.7296H98.6104V42.2873H101.097V41.5373H98.6104V40.095H101.379ZM96.35 40.095V39.2873H92.2247V40.095H93.8635V44.5373H94.7112V40.095H96.35ZM90.8685 44.5373V39.2873H90.0208V43.0373L87.2518 39.2873H86.4042V44.5373H87.2518V40.7873L89.9643 44.5373H90.8685ZM84.4263 44.5373V39.2873H83.5787V44.5373H84.4263ZM79.6795 44.5373V39.2873H78.6623L76.967 42.7488L75.2717 39.2873H74.198V44.5373H74.9891V40.6142L76.6279 44.018H77.193L78.8318 40.6142V44.5373H79.6795ZM72.4462 40.095V39.2873H68.773V44.5373H72.5592V43.7296H69.6771V42.2873H72.1636V41.5373H69.6771V40.095H72.4462ZM63.1785 43.7296V39.2873H62.3308V44.5373H65.4389V43.7296H63.1785ZM59.2793 42.5757H57.3579L58.3186 40.268L59.2793 42.5757ZM59.6183 43.3834L60.1269 44.595H61.0311L58.7707 39.345H57.8665L55.6061 44.595H56.5103L57.0188 43.3834H59.6183ZM54.3064 44.5373V39.2873H53.4587V44.5373H54.3064ZM47.9772 40.095H49.2204C50.2376 40.095 51.0288 40.845 51.0288 41.9411C51.0288 42.9796 50.2376 43.7873 49.2769 43.7873H48.0337V40.095H47.9772ZM47.1296 39.2873V44.5373H49.2204C50.8027 44.5373 51.8764 43.4411 51.8764 41.8834C51.8764 40.3834 50.7462 39.2296 49.2204 39.2296H47.1296V39.2873ZM45.0952 44.5373V39.2873H44.2475V43.0373L41.4785 39.2873H40.6309V44.5373H41.4785V40.7873L44.191 44.5373H45.0952ZM38.766 39.2873H37.9184V42.345C37.9184 43.2103 37.4098 43.7873 36.5621 43.7873C35.7145 43.7873 35.2059 43.268 35.2059 42.345V39.2873H34.3582V42.345C34.3582 43.7296 35.2059 44.5373 36.6186 44.5373C38.0314 44.5373 38.8791 43.6719 38.8791 42.345V39.2873H38.766ZM32.4369 44.5373V39.2873H31.4197L29.7244 42.7488L28.0291 39.2873H27.0119V44.5373H27.803V40.6142L29.4418 44.018H30.0069L31.6457 40.6142V44.5373H32.4369ZM20.0046 42.1719V40.095H21.2479C22.039 40.095 22.4911 40.4411 22.4911 41.1334C22.4911 41.8257 22.039 42.1719 21.2479 42.1719H20.0046ZM22.4346 44.5373H23.3952L22.265 42.8065C22.9432 42.518 23.3387 41.9411 23.3387 41.0757C23.3387 39.9219 22.6041 39.2873 21.2479 39.2873H19.157V44.5373H20.0046V42.9796H21.2479C21.3044 42.9796 21.4174 42.9796 21.4739 42.9796L22.4346 44.5373ZM17.4052 40.095V39.2873H13.732V44.5373H17.5182V43.7296H14.6362V42.2873H17.1226V41.5373H14.6362V40.095H17.4052ZM8.2505 40.095H9.49372C10.5109 40.095 11.3021 40.845 11.3021 41.9411C11.3021 42.9796 10.5109 43.7873 9.55023 43.7873H8.30701V40.095H8.2505ZM7.40284 39.2873V44.5373H9.49372C11.076 44.5373 12.1497 43.4411 12.1497 41.8834C12.1497 40.3834 11.0195 39.2296 9.49372 39.2296H7.40284V39.2873ZM5.42498 44.5373V39.2873H4.57733V44.5373H5.42498ZM6.10311 38.018L5.25545 37.6719L4.46431 38.768H5.25545L6.10311 38.018ZM0.847654 43.7296V39.2873H0V44.5373H3.10806V43.7296H0.847654Z" fill="white"/>
</g>
</g>
</g>
<defs>
<clipPath id="clip0_644_2648">
<rect width="184" height="45" fill="white"/>
</clipPath>
</defs>
</svg>
